<svg xmlns="http://www.w3.org/2000/svg" viewBox="0 0 1600 1500" font-family="'Segoe UI', Arial, sans-serif" font-size="13">
  <defs>
    <marker id="arrow" markerWidth="10" markerHeight="7" refX="10" refY="3.5" orient="auto">
      <polygon points="0 0, 10 3.5, 0 7" fill="#555"/>
    </marker>
    <marker id="arrow-grn" markerWidth="10" markerHeight="7" refX="10" refY="3.5" orient="auto">
      <polygon points="0 0, 10 3.5, 0 7" fill="#16a34a"/>
    </marker>
    <marker id="arrow-org" markerWidth="10" markerHeight="7" refX="10" refY="3.5" orient="auto">
      <polygon points="0 0, 10 3.5, 0 7" fill="#ea580c"/>
    </marker>
    <linearGradient id="bg" x1="0" y1="0" x2="0" y2="1">
      <stop offset="0%" stop-color="#f0fdf4"/>
      <stop offset="100%" stop-color="#dcfce7"/>
    </linearGradient>
    <filter id="shadow" x="-2%" y="-2%" width="104%" height="104%">
      <feDropShadow dx="1" dy="2" stdDeviation="3" flood-opacity="0.1"/>
    </filter>
    <style>
      .title { font-size: 28px; font-weight: 700; fill: #14532d; }
      .section-title { font-size: 18px; font-weight: 700; fill: #166534; }
      .state { fill: #dcfce7; stroke: #16a34a; stroke-width: 1.5; rx: 12; }
      .state-inactive { fill: #f1f5f9; stroke: #94a3b8; stroke-width: 1.5; rx: 12; }
      .state-text { font-size: 12px; font-weight: 600; fill: #14532d; text-anchor: middle; }
      .label { font-size: 10px; fill: #64748b; }
      .label-bold { font-size: 10px; fill: #334155; font-weight: 600; }
      .code { font-family: 'Fira Code', 'Consolas', monospace; font-size: 10px; fill: #7c3aed; }
      .box-green { fill: #f0fdf4; stroke: #86efac; stroke-width: 1; rx: 8; }
      .box-blue { fill: #eff6ff; stroke: #93c5fd; stroke-width: 1; rx: 8; }
      .box-orange { fill: #fff7ed; stroke: #fdba74; stroke-width: 1; rx: 8; }
      .box-purple { fill: #faf5ff; stroke: #c4b5fd; stroke-width: 1; rx: 8; }
      .card { fill: #fff; stroke: #d1d5db; stroke-width: 1; rx: 10; filter: url(#shadow); }
      .card-header { font-size: 13px; font-weight: 700; }
      .connector { fill: none; stroke: #555; stroke-width: 1.2; }
      .connector-grn { fill: none; stroke: #16a34a; stroke-width: 1.5; }
      .section-bg { fill: #fff; stroke: #d1fae5; stroke-width: 1; rx: 16; filter: url(#shadow); }
      .mode-periodic { fill: #dbeafe; stroke: #3b82f6; stroke-width: 1.5; rx: 10; }
      .mode-triggered { fill: #fef3c7; stroke: #f59e0b; stroke-width: 1.5; rx: 10; }
      .mode-hybrid { fill: #ede9fe; stroke: #8b5cf6; stroke-width: 1.5; rx: 10; }
    </style>
  </defs>

  <rect width="1600" height="1500" fill="url(#bg)"/>

  <!-- Main Title -->
  <text x="800" y="45" text-anchor="middle" class="title">Strategies Layer — Control Strategies</text>
  <text x="800" y="68" text-anchor="middle" font-size="13" fill="#64748b">csp_lib.controller · Strategy Lifecycle · Execution Modes · Built-in Strategies · Command Pattern</text>

  <!-- ═══════════════════════════════════════════════════ -->
  <!-- SECTION 1: Strategy Lifecycle -->
  <!-- ═══════════════════════════════════════════════════ -->
  <rect x="30" y="90" width="530" height="240" class="section-bg"/>
  <text x="55" y="120" class="section-title">1. Strategy Lifecycle</text>
  <text x="55" y="138" class="label">Strategy(ABC) — activation/deactivation cycle</text>

  <!-- Inactive state -->
  <rect x="80" y="165" width="140" height="50" class="state-inactive"/>
  <text x="150" y="186" class="state-text" fill="#475569">Inactive</text>
  <text x="150" y="202" text-anchor="middle" class="code" fill="#475569">strategy not in use</text>

  <!-- Active state -->
  <rect x="350" y="165" width="140" height="50" class="state"/>
  <text x="420" y="186" class="state-text">Active</text>
  <text x="420" y="202" text-anchor="middle" class="code">execute() called</text>

  <!-- Inactive → Active -->
  <path d="M 220,180 L 348,180" class="connector-grn" marker-end="url(#arrow-grn)"/>
  <text x="284" y="173" text-anchor="middle" class="code" fill="#16a34a">on_activate()</text>

  <!-- Active → Inactive -->
  <path d="M 350,202 L 220,202" class="connector" marker-end="url(#arrow)"/>
  <text x="284" y="220" text-anchor="middle" class="code">on_deactivate()</text>

  <!-- Active self-loop (execute) -->
  <path d="M 440,165 Q 470,130 490,165" class="connector-grn" fill="none" marker-end="url(#arrow-grn)"/>
  <text x="478" y="145" class="code" fill="#16a34a">execute(ctx)</text>
  <text x="478" y="157" class="code" fill="#16a34a">→ Command</text>

  <!-- Strategy ABC -->
  <rect x="80" y="240" width="420" height="75" rx="8" fill="#f8fafc" stroke="#d1fae5"/>
  <text x="90" y="258" class="label-bold">Strategy(ABC) interface:</text>
  <text x="100" y="275" class="code">@abstract execution_config → ExecutionConfig</text>
  <text x="100" y="290" class="code">@abstract execute(context: StrategyContext) → Command</text>
  <text x="100" y="305" class="code">on_activate() / on_deactivate()    # optional async</text>

  <!-- ═══════════════════════════════════════════════════ -->
  <!-- SECTION 2: Execution Modes -->
  <!-- ═══════════════════════════════════════════════════ -->
  <rect x="590" y="90" width="980" height="240" class="section-bg"/>
  <text x="615" y="120" class="section-title">2. Execution Mode State Machines</text>
  <text x="615" y="138" class="label">ExecutionConfig(mode, interval_seconds) — how StrategyExecutor schedules execution</text>

  <!-- PERIODIC -->
  <rect x="615" y="155" width="280" height="160" class="mode-periodic"/>
  <text x="755" y="178" text-anchor="middle" class="card-header" fill="#1e40af">PERIODIC</text>
  <text x="755" y="195" text-anchor="middle" class="label" fill="#1e40af">Fixed-interval timer loop</text>

  <rect x="635" y="210" width="80" height="32" rx="6" fill="#bfdbfe"/>
  <text x="675" y="230" text-anchor="middle" class="code" fill="#1e40af">Wait</text>
  <path d="M 715,226 L 770,226" class="connector" marker-end="url(#arrow)"/>
  <rect x="772" y="210" width="80" height="32" rx="6" fill="#bfdbfe"/>
  <text x="812" y="230" text-anchor="middle" class="code" fill="#1e40af">Execute</text>
  <path d="M 812,242 Q 812,270 675,270 Q 635,270 635,242" fill="none" stroke="#3b82f6" stroke-width="1" marker-end="url(#arrow)"/>
  <text x="735" y="285" text-anchor="middle" class="code" fill="#1e40af">sleep(interval_seconds)</text>
  <text x="735" y="300" text-anchor="middle" class="code" fill="#1e40af">ignore trigger events</text>

  <!-- TRIGGERED -->
  <rect x="920" y="155" width="280" height="160" class="mode-triggered"/>
  <text x="1060" y="178" text-anchor="middle" class="card-header" fill="#92400e">TRIGGERED</text>
  <text x="1060" y="195" text-anchor="middle" class="label" fill="#92400e">Only on external trigger</text>

  <rect x="940" y="210" width="80" height="32" rx="6" fill="#fef3c7"/>
  <text x="980" y="230" text-anchor="middle" class="code" fill="#92400e">Wait</text>
  <path d="M 1020,226 L 1075,226" class="connector" marker-end="url(#arrow)"/>
  <rect x="1077" y="210" width="80" height="32" rx="6" fill="#fef3c7"/>
  <text x="1117" y="230" text-anchor="middle" class="code" fill="#92400e">Execute</text>
  <path d="M 1117,242 Q 1117,270 980,270 Q 940,270 940,242" fill="none" stroke="#f59e0b" stroke-width="1" marker-end="url(#arrow)"/>
  <text x="1040" y="285" text-anchor="middle" class="code" fill="#92400e">await trigger_event.wait()</text>
  <text x="1040" y="300" text-anchor="middle" class="code" fill="#92400e">no periodic execution</text>

  <!-- HYBRID -->
  <rect x="1225" y="155" width="310" height="160" class="mode-hybrid"/>
  <text x="1380" y="178" text-anchor="middle" class="card-header" fill="#5b21b6">HYBRID</text>
  <text x="1380" y="195" text-anchor="middle" class="label" fill="#5b21b6">Periodic + early trigger</text>

  <rect x="1245" y="210" width="80" height="32" rx="6" fill="#ede9fe"/>
  <text x="1285" y="230" text-anchor="middle" class="code" fill="#5b21b6">Wait</text>
  <path d="M 1325,226 L 1395,226" class="connector" marker-end="url(#arrow)"/>
  <rect x="1397" y="210" width="80" height="32" rx="6" fill="#ede9fe"/>
  <text x="1437" y="230" text-anchor="middle" class="code" fill="#5b21b6">Execute</text>
  <path d="M 1437,242 Q 1437,270 1285,270 Q 1245,270 1245,242" fill="none" stroke="#8b5cf6" stroke-width="1" marker-end="url(#arrow)"/>
  <text x="1360" y="285" text-anchor="middle" class="code" fill="#5b21b6">wait_for(trigger, timeout=interval)</text>
  <text x="1360" y="300" text-anchor="middle" class="code" fill="#5b21b6">timeout = normal cycle, early = trigger</text>

  <!-- ═══════════════════════════════════════════════════ -->
  <!-- SECTION 3: Built-in Strategy Cards -->
  <!-- ═══════════════════════════════════════════════════ -->
  <rect x="30" y="350" width="1540" height="610" class="section-bg"/>
  <text x="55" y="380" class="section-title">3. Built-in Strategies</text>
  <text x="55" y="398" class="label">csp_lib.controller.strategies — 8 strategies with different execution modes and I/O</text>

  <!-- PQ Strategy Card -->
  <rect x="55" y="418" width="350" height="170" class="card"/>
  <rect x="55" y="418" width="350" height="30" rx="10" fill="#dbeafe"/>
  <rect x="55" y="435" width="350" height="13" fill="#dbeafe"/>
  <text x="230" y="440" text-anchor="middle" class="card-header" fill="#1e40af">PQModeStrategy</text>
  <rect x="340" y="422" width="55" height="18" rx="4" fill="#bfdbfe"/>
  <text x="368" y="435" text-anchor="middle" font-size="9" fill="#1e40af" font-weight="600">PERIODIC</text>

  <text x="70" y="470" class="label-bold">Config: PQModeConfig</text>
  <text x="80" y="486" class="code">p: float = 0.0  (kW)</text>
  <text x="80" y="500" class="code">q: float = 0.0  (kVar)</text>
  <text x="70" y="520" class="label-bold">Output:</text>
  <text x="80" y="536" class="code">Command(p_target=p, q_target=q)</text>
  <text x="70" y="556" class="label-bold">Behavior:</text>
  <text x="80" y="572" class="label">Fixed P/Q output, runtime configurable</text>

  <!-- QV Strategy Card -->
  <rect x="420" y="418" width="350" height="170" class="card"/>
  <rect x="420" y="418" width="350" height="30" rx="10" fill="#dbeafe"/>
  <rect x="420" y="435" width="350" height="13" fill="#dbeafe"/>
  <text x="595" y="440" text-anchor="middle" class="card-header" fill="#1e40af">QVStrategy</text>
  <rect x="705" y="422" width="55" height="18" rx="4" fill="#bfdbfe"/>
  <text x="733" y="435" text-anchor="middle" font-size="9" fill="#1e40af" font-weight="600">PERIODIC</text>

  <text x="435" y="470" class="label-bold">Config: QVConfig</text>
  <text x="445" y="486" class="code">nominal_voltage=380V  v_set=100%</text>
  <text x="445" y="500" class="code">droop=5%  v_deadband=0%  q_max_ratio=0.5</text>
  <text x="435" y="520" class="label-bold">Input: context.extra["voltage"]</text>
  <text x="435" y="536" class="label-bold">Output:</text>
  <text x="445" y="552" class="code">Command(p=last_p, q=droop_q_kvar)</text>
  <text x="435" y="572" class="label-bold">Behavior:</text>
  <text x="445" y="583" class="label">Volt-Var droop control, P passthrough</text>

  <!-- FP Strategy Card -->
  <rect x="785" y="418" width="380" height="170" class="card"/>
  <rect x="785" y="418" width="380" height="30" rx="10" fill="#dbeafe"/>
  <rect x="785" y="435" width="380" height="13" fill="#dbeafe"/>
  <text x="975" y="440" text-anchor="middle" class="card-header" fill="#1e40af">FPStrategy</text>
  <rect x="1100" y="422" width="55" height="18" rx="4" fill="#bfdbfe"/>
  <text x="1128" y="435" text-anchor="middle" font-size="9" fill="#1e40af" font-weight="600">PERIODIC</text>

  <text x="800" y="470" class="label-bold">Config: FPConfig (6-point piecewise linear)</text>
  <text x="810" y="486" class="code">f_base=60Hz  f1..f6 (freq offsets, ascending)</text>
  <text x="810" y="500" class="code">p1..p6 (power %, descending)  deadband: f3..f4</text>
  <text x="800" y="520" class="label-bold">Input: context.extra["frequency"]</text>
  <text x="800" y="536" class="label-bold">Output:</text>
  <text x="810" y="552" class="code">Command(p=interpolated_kw, q=0)</text>
  <text x="800" y="572" class="label-bold">Behavior:</text>
  <text x="810" y="583" class="label">Freq-Watt response, piecewise linear interp</text>

  <!-- PVSmooth Strategy Card -->
  <rect x="1180" y="418" width="370" height="170" class="card"/>
  <rect x="1180" y="418" width="370" height="30" rx="10" fill="#dbeafe"/>
  <rect x="1180" y="435" width="370" height="13" fill="#dbeafe"/>
  <text x="1365" y="440" text-anchor="middle" class="card-header" fill="#1e40af">PVSmoothStrategy</text>
  <rect x="1485" y="422" width="55" height="18" rx="4" fill="#bfdbfe"/>
  <text x="1513" y="435" text-anchor="middle" font-size="9" fill="#1e40af" font-weight="600">PERIODIC</text>

  <text x="1195" y="470" class="label-bold">Config: PVSmoothConfig</text>
  <text x="1205" y="486" class="code">capacity=1000kW  ramp_rate=10%/interval</text>
  <text x="1205" y="500" class="code">pv_loss=0kW  DEFAULT_INTERVAL=900s</text>
  <text x="1195" y="520" class="label-bold">Input: PVDataService (injected)</text>
  <text x="1195" y="536" class="label-bold">Output:</text>
  <text x="1205" y="552" class="code">Command(p=smoothed_avg, q=0)</text>
  <text x="1195" y="572" class="label-bold">Behavior:</text>
  <text x="1205" y="583" class="label">PV ramp-rate limiter with moving average</text>

  <!-- Row 2: Bypass, Stop, Schedule, Island -->

  <!-- Bypass Strategy Card -->
  <rect x="55" y="608" width="350" height="160" class="card"/>
  <rect x="55" y="608" width="350" height="30" rx="10" fill="#fef3c7"/>
  <rect x="55" y="625" width="350" height="13" fill="#fef3c7"/>
  <text x="230" y="630" text-anchor="middle" class="card-header" fill="#92400e">BypassStrategy</text>
  <rect x="330" y="612" width="65" height="18" rx="4" fill="#fde68a"/>
  <text x="363" y="625" text-anchor="middle" font-size="9" fill="#92400e" font-weight="600">TRIGGERED</text>

  <text x="70" y="660" class="label-bold">Config: none</text>
  <text x="70" y="678" class="label-bold">suppress_heartbeat: True</text>
  <text x="70" y="696" class="label-bold">Output:</text>
  <text x="80" y="712" class="code">context.last_command (passthrough)</text>
  <text x="70" y="732" class="label-bold">Behavior:</text>
  <text x="80" y="748" class="label">Releases device control, never self-executes</text>
  <text x="80" y="760" class="label">Use: manual debug, maintenance</text>

  <!-- Stop Strategy Card -->
  <rect x="420" y="608" width="350" height="160" class="card"/>
  <rect x="420" y="608" width="350" height="30" rx="10" fill="#fee2e2"/>
  <rect x="420" y="625" width="350" height="13" fill="#fee2e2"/>
  <text x="595" y="630" text-anchor="middle" class="card-header" fill="#991b1b">StopStrategy</text>
  <rect x="705" y="612" width="55" height="18" rx="4" fill="#fca5a5"/>
  <text x="733" y="625" text-anchor="middle" font-size="9" fill="#991b1b" font-weight="600">PERIODIC</text>

  <text x="435" y="660" class="label-bold">Config: none</text>
  <text x="435" y="678" class="label-bold">Output:</text>
  <text x="445" y="694" class="code">Command(p_target=0.0, q_target=0.0)</text>
  <text x="435" y="714" class="label-bold">Behavior:</text>
  <text x="445" y="730" class="label">Emergency stop / safe state</text>
  <text x="445" y="742" class="label">Always outputs zero power</text>

  <!-- Schedule Strategy Card -->
  <rect x="785" y="608" width="380" height="160" class="card"/>
  <rect x="785" y="608" width="380" height="30" rx="10" fill="#dcfce7"/>
  <rect x="785" y="625" width="380" height="13" fill="#dcfce7"/>
  <text x="975" y="630" text-anchor="middle" class="card-header" fill="#166534">ScheduleStrategy</text>
  <rect x="1100" y="612" width="55" height="18" rx="4" fill="#86efac"/>
  <text x="1128" y="625" text-anchor="middle" font-size="9" fill="#166534" font-weight="600">dynamic</text>

  <text x="800" y="660" class="label-bold">Config: fallback: Strategy (default StopStrategy)</text>
  <text x="800" y="678" class="label-bold">current_strategy:</text>
  <text x="810" y="694" class="code">_current_strategy or _fallback</text>
  <text x="800" y="714" class="label-bold">Methods:</text>
  <text x="810" y="730" class="code">update_schedule(strategy?) — swap runtime</text>
  <text x="800" y="750" class="label-bold">Behavior:</text>
  <text x="810" y="762" class="label">Delegates to inner strategy, runtime-swappable</text>

  <!-- Island Strategy Card -->
  <rect x="1180" y="608" width="370" height="160" class="card"/>
  <rect x="1180" y="608" width="370" height="30" rx="10" fill="#fef3c7"/>
  <rect x="1180" y="625" width="370" height="13" fill="#fef3c7"/>
  <text x="1365" y="630" text-anchor="middle" class="card-header" fill="#92400e">IslandModeStrategy</text>
  <rect x="1485" y="612" width="55" height="18" rx="4" fill="#fde68a"/>
  <text x="1513" y="625" text-anchor="middle" font-size="9" fill="#92400e" font-weight="600">TRIGGERED</text>

  <text x="1195" y="660" class="label-bold">Config: IslandModeConfig(sync_timeout=60s)</text>
  <text x="1195" y="678" class="label-bold">Requires: RelayProtocol (injected)</text>
  <text x="1195" y="696" class="label-bold">Output:</text>
  <text x="1205" y="712" class="code">context.last_command (no power change)</text>
  <text x="1195" y="732" class="label-bold">Lifecycle:</text>
  <text x="1205" y="748" class="code">on_activate → relay.set_open()</text>
  <text x="1205" y="762" class="code">on_deactivate → poll sync_ok → relay.set_close()</text>

  <!-- ═══════════════════════════════════════════════════ -->
  <!-- SECTION 4: Command Pattern & SystemBase -->
  <!-- ═══════════════════════════════════════════════════ -->
  <rect x="30" y="790" width="760" height="240" class="section-bg"/>
  <text x="55" y="820" class="section-title">4. Command Pattern</text>
  <text x="55" y="838" class="label">StrategyContext → Strategy.execute() → Command — the core data flow</text>

  <!-- StrategyContext box -->
  <rect x="55" y="855" width="200" height="120" class="box-purple"/>
  <text x="155" y="878" text-anchor="middle" class="card-header" fill="#5b21b6">StrategyContext</text>
  <text x="70" y="898" class="code">last_command: Command</text>
  <text x="70" y="913" class="code">soc: float | None</text>
  <text x="70" y="928" class="code">system_base: SystemBase | None</text>
  <text x="70" y="943" class="code">current_time: datetime | None</text>
  <text x="70" y="958" class="code">extra: dict[str, Any]</text>

  <!-- Arrow: Context → Strategy -->
  <line x1="255" y1="915" x2="310" y2="915" class="connector-grn" marker-end="url(#arrow-grn)"/>

  <!-- Strategy box -->
  <rect x="312" y="870" width="180" height="90" class="box-green"/>
  <text x="402" y="893" text-anchor="middle" class="card-header" fill="#166534">Strategy</text>
  <text x="322" y="913" class="code">execute(context)</text>
  <text x="322" y="928" class="code">  → Command</text>
  <text x="322" y="948" class="code">execution_config</text>

  <!-- Arrow: Strategy → Command -->
  <line x1="492" y1="915" x2="540" y2="915" class="connector-grn" marker-end="url(#arrow-grn)"/>

  <!-- Command box -->
  <rect x="542" y="860" width="220" height="110" class="box-orange"/>
  <text x="652" y="883" text-anchor="middle" class="card-header" fill="#ea580c">Command</text>
  <text x="557" y="903" class="code">p_target: float = 0.0  (kW)</text>
  <text x="557" y="918" class="code">q_target: float = 0.0  (kVar)</text>
  <line x1="547" y1="930" x2="757" y2="930" stroke="#fdba74"/>
  <text x="557" y="948" class="code">with_p(p) → new Command</text>
  <text x="557" y="963" class="code">with_q(q) → new Command</text>

  <!-- ConfigMixin -->
  <rect x="55" y="985" width="320" height="36" rx="6" fill="#f8fafc" stroke="#d1fae5"/>
  <text x="65" y="1003" class="label-bold">ConfigMixin:</text>
  <text x="145" y="1003" class="code">from_dict(data) — camelCase → snake_case conversion</text>
  <text x="145" y="1016" class="code">to_dict() — wraps dataclasses.asdict</text>

  <!-- ═══════════════════════════════════════════════════ -->
  <!-- SECTION 5: SystemBase Conversion -->
  <!-- ═══════════════════════════════════════════════════ -->
  <rect x="810" y="790" width="760" height="240" class="section-bg"/>
  <text x="835" y="820" class="section-title">5. SystemBase — Per-Unit Conversion</text>
  <text x="835" y="838" class="label">Percent ↔ kW/kVar conversion via p_base and q_base</text>

  <!-- SystemBase box -->
  <rect x="835" y="858" width="220" height="80" class="box-orange"/>
  <text x="945" y="881" text-anchor="middle" class="card-header" fill="#ea580c">SystemBase(ConfigMixin)</text>
  <text x="850" y="901" class="code">p_base: float = 0.0  (kW)</text>
  <text x="850" y="916" class="code">q_base: float = 0.0  (kVar)</text>
  <text x="850" y="931" class="code">frozen dataclass</text>

  <!-- Conversion formulas -->
  <line x1="1055" y1="895" x2="1100" y2="895" class="connector-grn" marker-end="url(#arrow-grn)"/>

  <rect x="1102" y="858" width="330" height="80" rx="8" fill="#f0fdf4" stroke="#86efac"/>
  <text x="1267" y="881" text-anchor="middle" class="card-header" fill="#166534">Conversion Formulas</text>
  <text x="1117" y="903" class="code">p_kw  = p_percent × p_base / 100</text>
  <text x="1117" y="920" class="code">q_kvar = q_percent × q_base / 100</text>

  <!-- Example -->
  <rect x="835" y="953" width="600" height="60" rx="8" fill="#fffbeb" stroke="#fde68a"/>
  <text x="845" y="973" class="label-bold">Example: p_base=500kW, q_base=200kVar</text>
  <text x="860" y="990" class="code">FPStrategy output: p_percent=52% → p_kw = 52 × 500 / 100 = 260 kW</text>
  <text x="860" y="1005" class="code">QVStrategy output: q_ratio=0.3 → q_kvar = 30 × 200 / 100 = 60 kVar</text>

  <!-- ═══════════════════════════════════════════════════ -->
  <!-- SECTION 6: Strategy I/O Summary Table -->
  <!-- ═══════════════════════════════════════════════════ -->
  <rect x="30" y="1050" width="1540" height="180" class="section-bg"/>
  <text x="55" y="1080" class="section-title">6. Strategy I/O Summary</text>

  <!-- Table header -->
  <rect x="55" y="1095" width="1490" height="25" rx="4" fill="#166534"/>
  <text x="145" y="1112" text-anchor="middle" font-size="11" fill="#fff" font-weight="600">Strategy</text>
  <text x="305" y="1112" text-anchor="middle" font-size="11" fill="#fff" font-weight="600">Mode</text>
  <text x="455" y="1112" text-anchor="middle" font-size="11" fill="#fff" font-weight="600">Interval</text>
  <text x="625" y="1112" text-anchor="middle" font-size="11" fill="#fff" font-weight="600">Input</text>
  <text x="875" y="1112" text-anchor="middle" font-size="11" fill="#fff" font-weight="600">Output</text>
  <text x="1175" y="1112" text-anchor="middle" font-size="11" fill="#fff" font-weight="600">Special</text>

  <!-- Table rows -->
  <rect x="55" y="1120" width="1490" height="20" fill="#f0fdf4"/>
  <text x="145" y="1135" text-anchor="middle" class="code">PQModeStrategy</text>
  <text x="305" y="1135" text-anchor="middle" class="code">PERIODIC</text>
  <text x="455" y="1135" text-anchor="middle" class="code">1s</text>
  <text x="625" y="1135" text-anchor="middle" class="code">PQModeConfig(p, q)</text>
  <text x="875" y="1135" text-anchor="middle" class="code">Command(p, q)</text>
  <text x="1175" y="1135" text-anchor="middle" class="code">update_config() for runtime changes</text>

  <rect x="55" y="1140" width="1490" height="20" fill="#fff"/>
  <text x="145" y="1155" text-anchor="middle" class="code">QVStrategy</text>
  <text x="305" y="1155" text-anchor="middle" class="code">PERIODIC</text>
  <text x="455" y="1155" text-anchor="middle" class="code">1s</text>
  <text x="625" y="1155" text-anchor="middle" class="code">extra["voltage"]</text>
  <text x="875" y="1155" text-anchor="middle" class="code">Command(last_p, droop_q)</text>
  <text x="1175" y="1155" text-anchor="middle" class="code">P passthrough, Q droop control</text>

  <rect x="55" y="1160" width="1490" height="20" fill="#f0fdf4"/>
  <text x="145" y="1175" text-anchor="middle" class="code">FPStrategy</text>
  <text x="305" y="1175" text-anchor="middle" class="code">PERIODIC</text>
  <text x="455" y="1175" text-anchor="middle" class="code">1s</text>
  <text x="625" y="1175" text-anchor="middle" class="code">extra["frequency"]</text>
  <text x="875" y="1175" text-anchor="middle" class="code">Command(interp_p, 0)</text>
  <text x="1175" y="1175" text-anchor="middle" class="code">6-point piecewise linear, deadband</text>

  <rect x="55" y="1180" width="1490" height="20" fill="#fff"/>
  <text x="145" y="1195" text-anchor="middle" class="code">PVSmoothStrategy</text>
  <text x="305" y="1195" text-anchor="middle" class="code">PERIODIC</text>
  <text x="455" y="1195" text-anchor="middle" class="code">900s</text>
  <text x="625" y="1195" text-anchor="middle" class="code">PVDataService (injected)</text>
  <text x="875" y="1195" text-anchor="middle" class="code">Command(smoothed_p, 0)</text>
  <text x="1175" y="1195" text-anchor="middle" class="code">ramp_rate limiting + moving avg</text>

  <rect x="55" y="1200" width="1490" height="20" fill="#f0fdf4"/>
  <text x="145" y="1215" text-anchor="middle" class="code">BypassStrategy</text>
  <text x="305" y="1215" text-anchor="middle" class="code">TRIGGERED</text>
  <text x="455" y="1215" text-anchor="middle" class="code">—</text>
  <text x="625" y="1215" text-anchor="middle" class="code">last_command</text>
  <text x="875" y="1215" text-anchor="middle" class="code">last_command (pass)</text>
  <text x="1175" y="1215" text-anchor="middle" class="code">suppress_heartbeat=True</text>

</svg>