<svg xmlns="http://www.w3.org/2000/svg" viewBox="0 0 1600 2000" font-family="'Segoe UI', Arial, sans-serif" font-size="13">
  <defs>
    <marker id="arrow" markerWidth="10" markerHeight="7" refX="10" refY="3.5" orient="auto">
      <polygon points="0 0, 10 3.5, 0 7" fill="#555"/>
    </marker>
    <marker id="arrow-pur" markerWidth="10" markerHeight="7" refX="10" refY="3.5" orient="auto">
      <polygon points="0 0, 10 3.5, 0 7" fill="#7c3aed"/>
    </marker>
    <marker id="arrow-red" markerWidth="10" markerHeight="7" refX="10" refY="3.5" orient="auto">
      <polygon points="0 0, 10 3.5, 0 7" fill="#dc2626"/>
    </marker>
    <marker id="arrow-blue" markerWidth="10" markerHeight="7" refX="10" refY="3.5" orient="auto">
      <polygon points="0 0, 10 3.5, 0 7" fill="#2563eb"/>
    </marker>
    <marker id="arrow-grn" markerWidth="10" markerHeight="7" refX="10" refY="3.5" orient="auto">
      <polygon points="0 0, 10 3.5, 0 7" fill="#16a34a"/>
    </marker>
    <marker id="arrow-org" markerWidth="10" markerHeight="7" refX="10" refY="3.5" orient="auto">
      <polygon points="0 0, 10 3.5, 0 7" fill="#ea580c"/>
    </marker>
    <linearGradient id="bg" x1="0" y1="0" x2="0" y2="1">
      <stop offset="0%" stop-color="#faf5ff"/>
      <stop offset="100%" stop-color="#ede9fe"/>
    </linearGradient>
    <filter id="shadow" x="-2%" y="-2%" width="104%" height="104%">
      <feDropShadow dx="1" dy="2" stdDeviation="3" flood-opacity="0.1"/>
    </filter>
    <style>
      .title { font-size: 28px; font-weight: 700; fill: #4c1d95; }
      .section-title { font-size: 18px; font-weight: 700; fill: #6d28d9; }
      .state { fill: #f5f3ff; stroke: #7c3aed; stroke-width: 1.5; rx: 12; }
      .state-hi { fill: #ede9fe; stroke: #7c3aed; stroke-width: 2; rx: 12; }
      .state-text { font-size: 12px; font-weight: 600; fill: #4c1d95; text-anchor: middle; }
      .label { font-size: 10px; fill: #64748b; }
      .label-bold { font-size: 10px; fill: #334155; font-weight: 600; }
      .code { font-family: 'Fira Code', 'Consolas', monospace; font-size: 10px; fill: #7c3aed; }
      .box-pur { fill: #faf5ff; stroke: #c4b5fd; stroke-width: 1; rx: 8; }
      .box-blue { fill: #eff6ff; stroke: #93c5fd; stroke-width: 1; rx: 8; }
      .box-org { fill: #fff7ed; stroke: #fdba74; stroke-width: 1; rx: 8; }
      .box-red { fill: #fef2f2; stroke: #fca5a5; stroke-width: 1; rx: 8; }
      .box-green { fill: #f0fdf4; stroke: #86efac; stroke-width: 1; rx: 8; }
      .connector { fill: none; stroke: #555; stroke-width: 1.2; }
      .connector-pur { fill: none; stroke: #7c3aed; stroke-width: 1.8; }
      .connector-blue { fill: none; stroke: #2563eb; stroke-width: 1.5; }
      .connector-org { fill: none; stroke: #ea580c; stroke-width: 1.5; }
      .connector-red { fill: none; stroke: #dc2626; stroke-width: 1.5; stroke-dasharray: 5,3; }
      .connector-grn { fill: none; stroke: #16a34a; stroke-width: 1.5; }
      .section-bg { fill: #fff; stroke: #ddd6fe; stroke-width: 1; rx: 16; filter: url(#shadow); }
      .device-box { fill: #dbeafe; stroke: #3b82f6; stroke-width: 2; rx: 14; }
      .flow-box { fill: #ede9fe; stroke: #8b5cf6; stroke-width: 1.5; rx: 10; }
    </style>
  </defs>

  <rect width="1600" height="2000" fill="url(#bg)"/>

  <!-- Main Title -->
  <text x="800" y="45" text-anchor="middle" class="title">System Level — End-to-End Integration</text>
  <text x="800" y="68" text-anchor="middle" font-size="13" fill="#64748b">csp_lib.integration · Data Flow · GridControlLoop · SystemController · Alarm Handling · Heartbeat</text>

  <!-- ═══════════════════════════════════════════════════ -->
  <!-- SECTION 1: End-to-End Circular Data Flow -->
  <!-- ═══════════════════════════════════════════════════ -->
  <rect x="30" y="90" width="1540" height="400" class="section-bg"/>
  <text x="55" y="120" class="section-title">1. End-to-End Data Flow (Circular)</text>
  <text x="55" y="138" class="label">Devices → Registry → ContextBuilder → StrategyExecutor → ProtectionGuard → CommandRouter → Devices</text>

  <!-- Central circular flow -->
  <!-- Devices (top center) -->
  <rect x="620" y="165" width="350" height="55" class="device-box"/>
  <text x="795" y="188" text-anchor="middle" font-size="15" font-weight="700" fill="#1e40af">AsyncModbusDevice[]</text>
  <text x="795" y="207" text-anchor="middle" class="code" fill="#1e40af">latest_values · is_responsive · is_protected</text>

  <!-- DeviceRegistry (left) -->
  <rect x="80" y="265" width="200" height="55" class="flow-box"/>
  <text x="180" y="288" text-anchor="middle" class="state-text">DeviceRegistry</text>
  <text x="180" y="306" text-anchor="middle" class="code">trait-based lookup</text>

  <!-- ContextBuilder -->
  <rect x="80" y="365" width="200" height="55" class="flow-box"/>
  <text x="180" y="388" text-anchor="middle" class="state-text">ContextBuilder</text>
  <text x="180" y="406" text-anchor="middle" class="code">mappings → StrategyContext</text>

  <!-- StrategyExecutor (bottom left) -->
  <rect x="370" y="395" width="220" height="55" class="flow-box"/>
  <text x="480" y="418" text-anchor="middle" class="state-text">StrategyExecutor</text>
  <text x="480" y="436" text-anchor="middle" class="code">strategy.execute(ctx) → Command</text>

  <!-- ProtectionGuard (bottom right) -->
  <rect x="680" y="395" width="220" height="55" class="flow-box"/>
  <text x="790" y="418" text-anchor="middle" class="state-text">ProtectionGuard</text>
  <text x="790" y="436" text-anchor="middle" class="code">apply(cmd, ctx) → Protected</text>

  <!-- CommandRouter (right) -->
  <rect x="1000" y="365" width="200" height="55" class="flow-box"/>
  <text x="1100" y="388" text-anchor="middle" class="state-text">CommandRouter</text>
  <text x="1100" y="406" text-anchor="middle" class="code">route(cmd) → device.write()</text>

  <!-- Registry to Devices (right side) -->
  <rect x="1000" y="265" width="200" height="55" class="flow-box"/>
  <text x="1100" y="288" text-anchor="middle" class="state-text">DeviceRegistry</text>
  <text x="1100" y="306" text-anchor="middle" class="code">responsive + unprotected</text>

  <!-- Arrows forming the circular flow -->
  <!-- Devices → Registry (left) -->
  <path d="M 620,200 Q 400,200 280,265" class="connector-pur" marker-end="url(#arrow-pur)"/>
  <text x="400" y="225" text-anchor="middle" class="label-bold" fill="#7c3aed">latest_values</text>

  <!-- Registry → ContextBuilder -->
  <line x1="180" y1="320" x2="180" y2="363" class="connector-pur" marker-end="url(#arrow-pur)"/>
  <text x="192" y="345" class="code" fill="#7c3aed">ContextMapping[]</text>

  <!-- ContextBuilder → Executor -->
  <path d="M 280,400 L 368,415" class="connector-pur" marker-end="url(#arrow-pur)"/>
  <text x="310" y="400" class="code" fill="#7c3aed">StrategyContext</text>

  <!-- Executor → ProtectionGuard -->
  <line x1="590" y1="422" x2="678" y2="422" class="connector-pur" marker-end="url(#arrow-pur)"/>
  <text x="634" y="415" class="code" fill="#7c3aed">Command</text>

  <!-- ProtectionGuard → CommandRouter -->
  <path d="M 900,400 L 998,390" class="connector-pur" marker-end="url(#arrow-pur)"/>
  <text x="940" y="390" class="code" fill="#7c3aed">Protected</text>

  <!-- CommandRouter → Registry (right) -->
  <line x1="1100" y1="365" x2="1100" y2="322" class="connector-pur" marker-end="url(#arrow-pur)"/>
  <text x="1112" y="345" class="code" fill="#7c3aed">write targets</text>

  <!-- Registry → Devices -->
  <path d="M 1000,280 Q 800,260 970,195" class="connector-pur" marker-end="url(#arrow-pur)"/>
  <text x="1020" y="238" class="label-bold" fill="#7c3aed">device.write(point, value)</text>

  <!-- Mapping schemas -->
  <rect x="310" y="260" width="310" height="90" rx="8" fill="#f8fafc" stroke="#ddd6fe"/>
  <text x="320" y="280" class="label-bold">ContextMapping (device → context):</text>
  <text x="330" y="296" class="code">point_name → context_field (e.g. "extra.voltage")</text>
  <text x="330" y="311" class="code">device_id | trait, aggregate=AVERAGE</text>
  <text x="320" y="331" class="label-bold">CommandMapping (command → device):</text>
  <text x="330" y="346" class="code">command_field (e.g. "p_target") → point_name</text>

  <!-- ═══════════════════════════════════════════════════ -->
  <!-- SECTION 2: GridControlLoop vs SystemController -->
  <!-- ═══════════════════════════════════════════════════ -->
  <rect x="30" y="510" width="1540" height="380" class="section-bg"/>
  <text x="55" y="540" class="section-title">2. GridControlLoop vs SystemController — Comparison</text>

  <!-- GridControlLoop -->
  <rect x="55" y="560" width="700" height="310" rx="12" fill="#eff6ff" stroke="#93c5fd" stroke-width="1.5"/>
  <text x="405" y="585" text-anchor="middle" font-size="16" font-weight="700" fill="#1e40af">GridControlLoop (Simple)</text>
  <text x="405" y="603" text-anchor="middle" class="label">AsyncLifecycleMixin — lightweight orchestrator</text>

  <!-- Simple path -->
  <rect x="80" y="625" width="120" height="40" class="box-blue"/>
  <text x="140" y="645" text-anchor="middle" class="state-text" fill="#1e40af">Devices</text>
  <text x="140" y="658" text-anchor="middle" class="code" fill="#1e40af">read values</text>

  <line x1="200" y1="645" x2="230" y2="645" class="connector-blue" marker-end="url(#arrow-blue)"/>

  <rect x="232" y="625" width="130" height="40" class="box-blue"/>
  <text x="297" y="645" text-anchor="middle" class="state-text" fill="#1e40af">ContextBuilder</text>
  <text x="297" y="658" text-anchor="middle" class="code" fill="#1e40af">build()</text>

  <line x1="362" y1="645" x2="392" y2="645" class="connector-blue" marker-end="url(#arrow-blue)"/>

  <rect x="394" y="625" width="140" height="40" class="box-blue"/>
  <text x="464" y="645" text-anchor="middle" class="state-text" fill="#1e40af">StrategyExecutor</text>
  <text x="464" y="658" text-anchor="middle" class="code" fill="#1e40af">execute(ctx)</text>

  <line x1="534" y1="645" x2="564" y2="645" class="connector-blue" marker-end="url(#arrow-blue)"/>

  <rect x="566" y="625" width="140" height="40" class="box-blue"/>
  <text x="636" y="645" text-anchor="middle" class="state-text" fill="#1e40af">CommandRouter</text>
  <text x="636" y="658" text-anchor="middle" class="code" fill="#1e40af">route(cmd)</text>

  <!-- Features list -->
  <rect x="80" y="685" width="640" height="80" rx="6" fill="#f8fafc" stroke="#bfdbfe"/>
  <text x="90" y="705" class="label-bold" fill="#1e40af">Components included:</text>
  <text x="100" y="722" class="code">DeviceRegistry · ContextBuilder · CommandRouter · StrategyExecutor</text>
  <text x="90" y="742" class="label-bold" fill="#1e40af">Optional:</text>
  <text x="100" y="758" class="code">PVDataService + DeviceDataFeed (if data_feed_mapping set)</text>

  <text x="80" y="785" class="label-bold" fill="#1e40af">Lifecycle:</text>
  <text x="100" y="800" class="code">_on_start(): data_feed.attach(), create_task(executor.run())</text>
  <text x="100" y="815" class="code">_on_stop():  executor.stop(), await task, data_feed.detach()</text>

  <text x="80" y="840" class="label-bold" fill="#dc2626">NOT included: ModeManager, ProtectionGuard, HeartbeatService, Alarm handling</text>

  <!-- SystemController -->
  <rect x="775" y="560" width="780" height="310" rx="12" fill="#faf5ff" stroke="#c4b5fd" stroke-width="1.5"/>
  <text x="1165" y="585" text-anchor="middle" font-size="16" font-weight="700" fill="#6d28d9">SystemController (Full)</text>
  <text x="1165" y="603" text-anchor="middle" class="label">AsyncLifecycleMixin — full orchestrator with mode/protection/heartbeat</text>

  <!-- Full path -->
  <rect x="800" y="625" width="90" height="38" class="box-pur"/>
  <text x="845" y="644" text-anchor="middle" class="state-text">Devices</text>

  <line x1="890" y1="644" x2="910" y2="644" class="connector-pur" marker-end="url(#arrow-pur)"/>

  <rect x="912" y="625" width="100" height="38" class="box-pur"/>
  <text x="962" y="644" text-anchor="middle" class="state-text">Context</text>
  <text x="962" y="656" text-anchor="middle" class="code">build()</text>

  <line x1="1012" y1="644" x2="1030" y2="644" class="connector-pur" marker-end="url(#arrow-pur)"/>

  <rect x="1032" y="622" width="100" height="44" class="box-org"/>
  <text x="1082" y="641" text-anchor="middle" class="state-text" fill="#ea580c">Mode</text>
  <text x="1082" y="656" text-anchor="middle" class="code" fill="#ea580c">Manager</text>

  <line x1="1132" y1="644" x2="1150" y2="644" class="connector-pur" marker-end="url(#arrow-pur)"/>

  <rect x="1152" y="625" width="100" height="38" class="box-pur"/>
  <text x="1202" y="644" text-anchor="middle" class="state-text">Executor</text>

  <line x1="1252" y1="644" x2="1270" y2="644" class="connector-pur" marker-end="url(#arrow-pur)"/>

  <rect x="1272" y="622" width="100" height="44" class="box-red"/>
  <text x="1322" y="641" text-anchor="middle" class="state-text" fill="#991b1b">Protection</text>
  <text x="1322" y="656" text-anchor="middle" class="code" fill="#991b1b">Guard</text>

  <line x1="1372" y1="644" x2="1390" y2="644" class="connector-pur" marker-end="url(#arrow-pur)"/>

  <rect x="1392" y="625" width="100" height="38" class="box-pur"/>
  <text x="1442" y="644" text-anchor="middle" class="state-text">Router</text>

  <!-- Heartbeat parallel path -->
  <rect x="1200" y="675" width="100" height="35" class="box-green"/>
  <text x="1250" y="697" text-anchor="middle" class="state-text" fill="#166534">Heartbeat</text>
  <text x="1325" y="700" class="code" fill="#166534">parallel path</text>

  <!-- Features list -->
  <rect x="800" y="720" width="740" height="80" rx="6" fill="#f8fafc" stroke="#c4b5fd"/>
  <text x="810" y="740" class="label-bold" fill="#6d28d9">All components:</text>
  <text x="820" y="757" class="code">DeviceRegistry · ContextBuilder · CommandRouter · StrategyExecutor</text>
  <text x="820" y="772" class="code">ModeManager · ProtectionGuard · HeartbeatService · PVDataService</text>
  <text x="810" y="792" class="label-bold" fill="#6d28d9">Additional:</text>
  <text x="820" y="807" class="code">_handle_auto_stop() · _handle_device_alarms() · _resolve_strategy()</text>

  <text x="800" y="830" class="label-bold" fill="#6d28d9">Lifecycle:</text>
  <text x="820" y="845" class="code">_on_start(): data_feed.attach(), heartbeat.start(), create_task(executor.run())</text>
  <text x="820" y="860" class="code">_on_stop():  executor.stop(), await task, heartbeat.stop(), data_feed.detach()</text>

  <!-- ═══════════════════════════════════════════════════ -->
  <!-- SECTION 3: Alarm Handling Modes -->
  <!-- ═══════════════════════════════════════════════════ -->
  <rect x="30" y="910" width="1540" height="370" class="section-bg"/>
  <text x="55" y="940" class="section-title">3. Alarm Handling Modes — system_wide vs per_device</text>
  <text x="55" y="958" class="label">SystemControllerConfig.alarm_mode determines how device alarms affect control</text>

  <!-- system_wide mode -->
  <rect x="55" y="975" width="720" height="285" rx="12" fill="#fef2f2" stroke="#fca5a5" stroke-width="1.5"/>
  <text x="415" y="1000" text-anchor="middle" font-size="15" font-weight="700" fill="#991b1b">alarm_mode = "system_wide"</text>
  <text x="415" y="1018" text-anchor="middle" class="label">Any device alarm → entire system auto-stops</text>

  <!-- system_wide flow -->
  <rect x="80" y="1040" width="130" height="40" class="box-red"/>
  <text x="145" y="1055" text-anchor="middle" class="state-text" fill="#991b1b">Any Device</text>
  <text x="145" y="1070" text-anchor="middle" class="code" fill="#991b1b">is_protected=True</text>

  <line x1="210" y1="1060" x2="240" y2="1060" class="connector-red" stroke-dasharray="none" marker-end="url(#arrow-red)"/>

  <rect x="242" y="1035" width="200" height="50" class="box-red"/>
  <text x="342" y="1055" text-anchor="middle" class="state-text" fill="#991b1b">_build_context()</text>
  <text x="342" y="1073" text-anchor="middle" class="code" fill="#991b1b">extra["system_alarm"]=True</text>

  <line x1="442" y1="1060" x2="472" y2="1060" class="connector-red" stroke-dasharray="none" marker-end="url(#arrow-red)"/>

  <rect x="474" y="1035" width="200" height="50" class="box-red"/>
  <text x="574" y="1055" text-anchor="middle" class="state-text" fill="#991b1b">_handle_auto_stop()</text>
  <text x="574" y="1073" text-anchor="middle" class="code" fill="#991b1b">push_override("__auto_stop__")</text>

  <!-- Auto-stop detail -->
  <rect x="80" y="1100" width="680" height="145" rx="8" fill="#fff5f5" stroke="#fecaca"/>
  <text x="90" y="1120" class="label-bold" fill="#991b1b">Auto-stop mechanism (auto_stop_on_alarm=True):</text>
  <text x="100" y="1140" class="code">1. Register "__auto_stop__" mode with StopStrategy at priority PROTECTION+1 (=101)</text>
  <text x="100" y="1157" class="code">2. On alarm: _auto_stop_active=True, push_override("__auto_stop__")</text>
  <text x="100" y="1174" class="code">3. Highest priority override → effective_strategy = StopStrategy → Command(0, 0)</text>
  <text x="100" y="1191" class="code">4. On alarm clear: _auto_stop_active=False, pop_override("__auto_stop__")</text>
  <text x="100" y="1208" class="code">5. Resumes previous strategy automatically</text>
  <text x="100" y="1228" class="label-bold" fill="#991b1b">SystemAlarmProtection also fires: extra["system_alarm"]=True → Command(0,0)</text>

  <!-- per_device mode -->
  <rect x="795" y="975" width="760" height="285" rx="12" fill="#fff7ed" stroke="#fdba74" stroke-width="1.5"/>
  <text x="1175" y="1000" text-anchor="middle" font-size="15" font-weight="700" fill="#ea580c">alarm_mode = "per_device"</text>
  <text x="1175" y="1018" text-anchor="middle" class="label">Only affected device is skipped; system continues operating</text>

  <!-- per_device flow -->
  <rect x="820" y="1040" width="130" height="40" class="box-org"/>
  <text x="885" y="1055" text-anchor="middle" class="state-text" fill="#ea580c">Device A</text>
  <text x="885" y="1070" text-anchor="middle" class="code" fill="#ea580c">is_protected=True</text>

  <line x1="950" y1="1060" x2="980" y2="1060" class="connector-org" marker-end="url(#arrow-org)"/>

  <rect x="982" y="1035" width="230" height="50" class="box-org"/>
  <text x="1097" y="1055" text-anchor="middle" class="state-text" fill="#ea580c">_handle_device_alarms()</text>
  <text x="1097" y="1073" text-anchor="middle" class="code" fill="#ea580c">_alarmed_devices.add(device_id)</text>

  <line x1="1212" y1="1060" x2="1242" y2="1060" class="connector-org" marker-end="url(#arrow-org)"/>

  <rect x="1244" y="1035" width="200" height="50" class="box-org"/>
  <text x="1344" y="1055" text-anchor="middle" class="state-text" fill="#ea580c">CommandRouter</text>
  <text x="1344" y="1073" text-anchor="middle" class="code" fill="#ea580c">skip if is_protected</text>

  <!-- per_device detail -->
  <rect x="820" y="1100" width="720" height="145" rx="8" fill="#fffbeb" stroke="#fde68a"/>
  <text x="830" y="1120" class="label-bold" fill="#ea580c">Per-device alarm handling:</text>
  <text x="840" y="1140" class="code">1. _build_context() sets extra["system_alarm"]=False (system NOT alarmed)</text>
  <text x="840" y="1157" class="code">2. _handle_device_alarms() iterates all devices:</text>
  <text x="860" y="1174" class="code">New alarm: _alarmed_devices.add(id), call on_device_alarm callback</text>
  <text x="860" y="1191" class="code">  or default: device.execute_action("stop")</text>
  <text x="860" y="1208" class="code">Alarm cleared: _alarmed_devices.discard(id), call on_device_alarm_clear</text>
  <text x="840" y="1228" class="code">3. CommandRouter._write_single/broadcast: skip device where is_protected=True</text>

  <!-- ═══════════════════════════════════════════════════ -->
  <!-- SECTION 4: HeartbeatService -->
  <!-- ═══════════════════════════════════════════════════ -->
  <rect x="30" y="1300" width="1540" height="320" class="section-bg"/>
  <text x="55" y="1330" class="section-title">4. HeartbeatService — Parallel Watchdog Path</text>
  <text x="55" y="1348" class="label">Periodic value writes to prove controller liveness; pause/resume linked to suppress_heartbeat</text>

  <!-- Heartbeat modes -->
  <rect x="55" y="1370" width="460" height="230" rx="12" fill="#f0fdf4" stroke="#86efac"/>
  <text x="285" y="1395" text-anchor="middle" font-size="14" font-weight="700" fill="#166534">HeartbeatMode (Enum)</text>

  <!-- TOGGLE -->
  <rect x="80" y="1415" width="400" height="55" rx="8" fill="#dcfce7" stroke="#22c55e"/>
  <text x="280" y="1435" text-anchor="middle" class="label-bold" fill="#166534">TOGGLE — alternates 0/1</text>
  <rect x="100" y="1445" width="30" height="18" rx="3" fill="#22c55e"/>
  <text x="115" y="1458" text-anchor="middle" font-size="10" fill="#fff" font-weight="700">0</text>
  <line x1="135" y1="1454" x2="155" y2="1454" stroke="#22c55e" stroke-width="1" marker-end="url(#arrow-grn)"/>
  <rect x="160" y="1445" width="30" height="18" rx="3" fill="#16a34a"/>
  <text x="175" y="1458" text-anchor="middle" font-size="10" fill="#fff" font-weight="700">1</text>
  <line x1="195" y1="1454" x2="215" y2="1454" stroke="#22c55e" stroke-width="1" marker-end="url(#arrow-grn)"/>
  <rect x="220" y="1445" width="30" height="18" rx="3" fill="#22c55e"/>
  <text x="235" y="1458" text-anchor="middle" font-size="10" fill="#fff" font-weight="700">0</text>
  <line x1="255" y1="1454" x2="275" y2="1454" stroke="#22c55e" stroke-width="1" marker-end="url(#arrow-grn)"/>
  <rect x="280" y="1445" width="30" height="18" rx="3" fill="#16a34a"/>
  <text x="295" y="1458" text-anchor="middle" font-size="10" fill="#fff" font-weight="700">1</text>
  <text x="335" y="1460" class="code" fill="#166534">next = 1 - current</text>

  <!-- INCREMENT -->
  <rect x="80" y="1478" width="400" height="55" rx="8" fill="#dcfce7" stroke="#22c55e"/>
  <text x="280" y="1498" text-anchor="middle" class="label-bold" fill="#166534">INCREMENT — counts up, wraps at max</text>
  <rect x="100" y="1508" width="30" height="18" rx="3" fill="#22c55e"/>
  <text x="115" y="1521" text-anchor="middle" font-size="10" fill="#fff" font-weight="700">0</text>
  <line x1="135" y1="1517" x2="155" y2="1517" stroke="#22c55e" stroke-width="1" marker-end="url(#arrow-grn)"/>
  <rect x="160" y="1508" width="30" height="18" rx="3" fill="#22c55e"/>
  <text x="175" y="1521" text-anchor="middle" font-size="10" fill="#fff" font-weight="700">1</text>
  <line x1="195" y1="1517" x2="215" y2="1517" stroke="#22c55e" stroke-width="1" marker-end="url(#arrow-grn)"/>
  <rect x="220" y="1508" width="30" height="18" rx="3" fill="#22c55e"/>
  <text x="235" y="1521" text-anchor="middle" font-size="10" fill="#fff" font-weight="700">2</text>
  <line x1="255" y1="1517" x2="275" y2="1517" stroke="#22c55e" stroke-width="1" marker-end="url(#arrow-grn)"/>
  <text x="288" y="1523" class="code" fill="#166534">... → 65535 → 0</text>

  <!-- CONSTANT -->
  <rect x="80" y="1541" width="400" height="45" rx="8" fill="#dcfce7" stroke="#22c55e"/>
  <text x="280" y="1561" text-anchor="middle" class="label-bold" fill="#166534">CONSTANT — always writes same value</text>
  <text x="280" y="1578" text-anchor="middle" class="code" fill="#166534">constant_value (default=1), no counter update</text>

  <!-- Pause/Resume mechanism -->
  <rect x="540" y="1370" width="480" height="230" rx="12" fill="#faf5ff" stroke="#c4b5fd"/>
  <text x="780" y="1395" text-anchor="middle" font-size="14" font-weight="700" fill="#6d28d9">Pause / Resume Lifecycle</text>

  <!-- State machine -->
  <rect x="580" y="1420" width="120" height="44" rx="10" fill="#dcfce7" stroke="#22c55e" stroke-width="2"/>
  <text x="640" y="1440" text-anchor="middle" class="state-text" fill="#166534">Running</text>
  <text x="640" y="1456" text-anchor="middle" class="code" fill="#166534">_paused=False</text>

  <rect x="800" y="1420" width="120" height="44" rx="10" fill="#fef3c7" stroke="#f59e0b" stroke-width="2"/>
  <text x="860" y="1440" text-anchor="middle" class="state-text" fill="#92400e">Paused</text>
  <text x="860" y="1456" text-anchor="middle" class="code" fill="#92400e">_paused=True</text>

  <!-- Running → Paused -->
  <path d="M 700,1434 L 798,1434" class="connector-org" marker-end="url(#arrow-org)"/>
  <text x="749" y="1427" text-anchor="middle" class="code" fill="#ea580c">pause()</text>

  <!-- Paused → Running -->
  <path d="M 800,1455 L 700,1455" class="connector-grn" marker-end="url(#arrow-grn)"/>
  <text x="749" y="1475" text-anchor="middle" class="code" fill="#16a34a">resume()</text>

  <!-- Trigger explanation -->
  <rect x="565" y="1490" width="430" height="95" rx="6" fill="#f8fafc" stroke="#ddd6fe"/>
  <text x="575" y="1510" class="label-bold" fill="#6d28d9">SystemController integration:</text>
  <text x="585" y="1528" class="code">_on_strategy_change(old, new):</text>
  <text x="595" y="1543" class="code">  if resolved.suppress_heartbeat: heartbeat.pause()</text>
  <text x="595" y="1558" class="code">  else: heartbeat.resume()</text>
  <text x="585" y="1578" class="code">BypassStrategy.suppress_heartbeat = True → pause()</text>

  <!-- Heartbeat loop detail -->
  <rect x="1045" y="1370" width="500" height="230" rx="12" fill="#f8fafc" stroke="#d1d5db"/>
  <text x="1295" y="1395" text-anchor="middle" font-size="14" font-weight="700" fill="#334155">Heartbeat _run() Loop</text>

  <text x="1060" y="1420" class="code">while not _stop_event.is_set():</text>
  <text x="1075" y="1438" class="code">  if not _paused:</text>
  <text x="1090" y="1456" class="code">    await _send_heartbeats()</text>
  <text x="1075" y="1474" class="code">  try:</text>
  <text x="1090" y="1492" class="code">    await wait_for(_stop_event, timeout=interval)</text>
  <text x="1090" y="1510" class="code">    break  # stop requested</text>
  <text x="1075" y="1528" class="code">  except TimeoutError:</text>
  <text x="1090" y="1546" class="code">    pass  # normal interval elapsed</text>

  <text x="1060" y="1575" class="label-bold">Write order:</text>
  <text x="1075" y="1590" class="code">1. Explicit HeartbeatMapping[] (device_id | trait)</text>

  <!-- ═══════════════════════════════════════════════════ -->
  <!-- SECTION 5: Full SystemController Lifecycle -->
  <!-- ═══════════════════════════════════════════════════ -->
  <rect x="30" y="1640" width="1540" height="340" class="section-bg"/>
  <text x="55" y="1670" class="section-title">5. SystemController Full Lifecycle</text>
  <text x="55" y="1688" class="label">_on_start() → running loop → _on_stop() with all sub-components</text>

  <!-- _on_start sequence -->
  <text x="55" y="1715" class="label-bold" fill="#6d28d9">_on_start():</text>
  <rect x="55" y="1725" width="150" height="38" class="box-pur"/>
  <text x="130" y="1749" text-anchor="middle" class="code">data_feed.attach()</text>
  <text x="130" y="1739" text-anchor="middle" class="label-bold">if data_feed set</text>

  <line x1="205" y1="1744" x2="230" y2="1744" class="connector-pur" marker-end="url(#arrow-pur)"/>

  <rect x="232" y="1725" width="150" height="38" class="box-green"/>
  <text x="307" y="1749" text-anchor="middle" class="code">heartbeat.start()</text>
  <text x="307" y="1739" text-anchor="middle" class="label-bold">if heartbeat set</text>

  <line x1="382" y1="1744" x2="407" y2="1744" class="connector-pur" marker-end="url(#arrow-pur)"/>

  <rect x="409" y="1725" width="240" height="38" class="box-pur"/>
  <text x="529" y="1749" text-anchor="middle" class="code">create_task(executor.run())</text>
  <text x="529" y="1739" text-anchor="middle" class="label-bold">start main loop</text>

  <!-- Running loop -->
  <text x="55" y="1795" class="label-bold" fill="#6d28d9">Running loop (StrategyExecutor.run):</text>

  <rect x="55" y="1805" width="130" height="38" class="box-pur"/>
  <text x="120" y="1825" text-anchor="middle" class="code">_build_context()</text>
  <text x="120" y="1815" text-anchor="middle" class="label-bold">alarm check</text>

  <line x1="185" y1="1824" x2="210" y2="1824" class="connector-pur" marker-end="url(#arrow-pur)"/>

  <rect x="212" y="1805" width="130" height="38" class="box-pur"/>
  <text x="277" y="1825" text-anchor="middle" class="code">execute(ctx)</text>
  <text x="277" y="1815" text-anchor="middle" class="label-bold">strategy</text>

  <line x1="342" y1="1824" x2="367" y2="1824" class="connector-pur" marker-end="url(#arrow-pur)"/>

  <rect x="369" y="1805" width="170" height="38" class="box-red"/>
  <text x="454" y="1825" text-anchor="middle" class="code">protection.apply()</text>
  <text x="454" y="1815" text-anchor="middle" class="label-bold">guard chain</text>

  <line x1="539" y1="1824" x2="564" y2="1824" class="connector-pur" marker-end="url(#arrow-pur)"/>

  <rect x="566" y="1805" width="170" height="38" class="box-org"/>
  <text x="651" y="1825" text-anchor="middle" class="code">_handle_auto_stop()</text>
  <text x="651" y="1815" text-anchor="middle" class="label-bold">if system_wide</text>

  <line x1="736" y1="1824" x2="761" y2="1824" class="connector-pur" marker-end="url(#arrow-pur)"/>

  <rect x="763" y="1805" width="150" height="38" class="box-pur"/>
  <text x="838" y="1825" text-anchor="middle" class="code">router.route(cmd)</text>
  <text x="838" y="1815" text-anchor="middle" class="label-bold">write to devices</text>

  <line x1="913" y1="1824" x2="938" y2="1824" class="connector-pur" marker-end="url(#arrow-pur)"/>

  <rect x="940" y="1805" width="195" height="38" class="box-org"/>
  <text x="1038" y="1825" text-anchor="middle" class="code">_handle_device_alarms()</text>
  <text x="1038" y="1815" text-anchor="middle" class="label-bold">if per_device</text>

  <!-- _on_stop sequence -->
  <text x="55" y="1875" class="label-bold" fill="#6d28d9">_on_stop():</text>

  <rect x="55" y="1885" width="130" height="38" class="box-red"/>
  <text x="120" y="1905" text-anchor="middle" class="code">executor.stop()</text>
  <text x="120" y="1895" text-anchor="middle" class="label-bold">stop loop</text>

  <line x1="185" y1="1904" x2="210" y2="1904" class="connector-pur" marker-end="url(#arrow-pur)"/>

  <rect x="212" y="1885" width="130" height="38" class="box-pur"/>
  <text x="277" y="1905" text-anchor="middle" class="code">await _run_task</text>
  <text x="277" y="1895" text-anchor="middle" class="label-bold">wait complete</text>

  <line x1="342" y1="1904" x2="367" y2="1904" class="connector-pur" marker-end="url(#arrow-pur)"/>

  <rect x="369" y="1885" width="150" height="38" class="box-green"/>
  <text x="444" y="1905" text-anchor="middle" class="code">heartbeat.stop()</text>
  <text x="444" y="1895" text-anchor="middle" class="label-bold">if heartbeat set</text>

  <line x1="519" y1="1904" x2="544" y2="1904" class="connector-pur" marker-end="url(#arrow-pur)"/>

  <rect x="546" y="1885" width="150" height="38" class="box-pur"/>
  <text x="621" y="1905" text-anchor="middle" class="code">data_feed.detach()</text>
  <text x="621" y="1895" text-anchor="middle" class="label-bold">if data_feed set</text>

  <!-- Health check -->
  <rect x="1200" y="1860" width="350" height="100" rx="10" fill="#f8fafc" stroke="#d1d5db"/>
  <text x="1375" y="1885" text-anchor="middle" font-size="13" font-weight="700" fill="#334155">health() → HealthReport</text>
  <text x="1215" y="1905" class="code">children = [dev.health() for dev in all_devices]</text>
  <text x="1215" y="1920" class="code">HEALTHY: all children healthy</text>
  <text x="1215" y="1935" class="code">UNHEALTHY: any child unhealthy</text>
  <text x="1215" y="1950" class="code">DEGRADED: otherwise</text>

</svg>